<svg xmlns="http://www.w3.org/2000/svg" viewBox="0 0 187.56 64.53"><defs><style>.cls-1{fill:#fff;}</style></defs><title>Asset 39</title><g id="Layer_2" data-name="Layer 2"><g id="Layer_1-2" data-name="Layer 1"><path class="cls-1" d="M27.38,22.2l-10.16.67.57-4.29a10.89,10.89,0,0,0,.11-3.8A1.06,1.06,0,0,0,16.71,14a2.06,2.06,0,0,0-1.64,1.21,9.57,9.57,0,0,0-1,3.39,12.1,12.1,0,0,0,0,4.32,7.3,7.3,0,0,0,2.63,3.33q6.52,5.48,7.91,9.18t.27,12.2a32.12,32.12,0,0,1-2.25,9.18A13.06,13.06,0,0,1,18,62a14.64,14.64,0,0,1-7.28,2.44,10.54,10.54,0,0,1-7.2-1.8,8.08,8.08,0,0,1-3.3-5.56,39.34,39.34,0,0,1,.36-10L1,43.37l10.16-.67-.93,7a12,12,0,0,0-.12,4.15,1.22,1.22,0,0,0,1.4.83,2.21,2.21,0,0,0,1.78-1.29,10,10,0,0,0,1-3.54q.67-5.11-.13-6.62a26.63,26.63,0,0,0-4.43-4.92,40.69,40.69,0,0,1-4.69-5,11.1,11.1,0,0,1-1.58-4.5,26.49,26.49,0,0,1,.13-7.52q.88-6.65,2.52-9.8a13.09,13.09,0,0,1,4.62-5.07,14.25,14.25,0,0,1,6.88-2.17,11.67,11.67,0,0,1,7,1.42A6.87,6.87,0,0,1,28,10.21q.6,2.81-.31,9.71Z"/><path class="cls-1" d="M53.74,13.34,46.88,54.85l-10,.84.74-3.46a11.46,11.46,0,0,1-3,3.36A7.19,7.19,0,0,1,31,56.92a5.29,5.29,0,0,1-3.49-.69,4.15,4.15,0,0,1-1.7-2.48,10.4,10.4,0,0,1-.29-3.38q.13-1.78,1-7.13l4.63-28L41,14.41,36.31,42.66a38.56,38.56,0,0,0-.72,5.74q.08.89,1.1.8a1.56,1.56,0,0,0,1.45-1,50.48,50.48,0,0,0,1.2-6.05L44,14.16Z"/><path class="cls-1" d="M68.15,12.8l-.7,3.61a14.58,14.58,0,0,1,3.42-3.52,7.63,7.63,0,0,1,3.67-1.4,4.62,4.62,0,0,1,3.79,1.17A4.92,4.92,0,0,1,79.92,16a38.25,38.25,0,0,1-.59,6.82L76.81,40a44.4,44.4,0,0,1-1.69,7.93,9.11,9.11,0,0,1-2.73,3.94,7.46,7.46,0,0,1-4.17,1.76,5,5,0,0,1-3.28-.75,7.22,7.22,0,0,1-2.42-2.92l-1.37,9.32-10,.93L58,13.74Zm1.1,11.56a25.61,25.61,0,0,0,.45-4.54q-.11-.78-1.12-.68a1.62,1.62,0,0,0-1.41,1,22.26,22.26,0,0,0-.94,4.47L63.76,41.47A20.29,20.29,0,0,0,63.38,46a.93.93,0,0,0,1.15.8,1.48,1.48,0,0,0,1.32-1,22.64,22.64,0,0,0,.84-4.11Z"/><path class="cls-1" d="M94.58,10.14l-1.28,5.4q3.12-6,7.29-6.68L98.24,23.21a8.42,8.42,0,0,0-4.17,1.29,5.43,5.43,0,0,0-2,2.71,62.53,62.53,0,0,0-1.54,7.6L87.88,50.93l-10,.92,6.7-40.79Z"/><path class="cls-1" d="M122.11,28.16l-13,1.21L108,38.08a11.27,11.27,0,0,0-.13,3.49,1,1,0,0,0,1.14.67,2,2,0,0,0,1.66-1.19,15.32,15.32,0,0,0,.9-4.09l.68-5.31,9.54-.89-.38,3a35.09,35.09,0,0,1-1.12,5.77A16.39,16.39,0,0,1,117.93,44a12.78,12.78,0,0,1-4,3.75,13.64,13.64,0,0,1-5.61,1.65,12,12,0,0,1-5.48-.6A6.63,6.63,0,0,1,99.39,46a9.68,9.68,0,0,1-1.33-4.14,33.15,33.15,0,0,1,.35-6.8l1.5-11.75a27.13,27.13,0,0,1,2.23-8.44,12.47,12.47,0,0,1,4.43-5,13.76,13.76,0,0,1,6.33-2.19A10.07,10.07,0,0,1,119.64,9a7.6,7.6,0,0,1,3.2,4.83,27.85,27.85,0,0,1-.05,9Zm-9.25-5.62.38-2.94a17.74,17.74,0,0,0,.24-4,.85.85,0,0,0-1-.81,1.53,1.53,0,0,0-1.39.89,21.18,21.18,0,0,0-.78,4.2l-.38,2.94Z"/><path class="cls-1" d="M138.44,5.46l-.81,3.74a13,13,0,0,1,3.44-3.54,8.23,8.23,0,0,1,4-1.39q4.16-.31,5.79,3.94a14.46,14.46,0,0,1,3.52-3.55,7.86,7.86,0,0,1,3.83-1.38,5.29,5.29,0,0,1,4.12,1.14,4.85,4.85,0,0,1,1.6,3.44,34.83,34.83,0,0,1-.7,6.91l-4.74,27.8-10.06.76,4.35-25.5a37.41,37.41,0,0,0,.76-6.18q-.09-1.17-1.17-1.09a1.88,1.88,0,0,0-1.63,1.29,37.36,37.36,0,0,0-1.38,6.25L145,43.59,135,44.35l4.24-24.86a53.6,53.6,0,0,0,.93-6.88,1,1,0,0,0-1.15-1,1.94,1.94,0,0,0-1.28.69,3.27,3.27,0,0,0-.79,1.51q-.2.87-.68,3.7L131.6,44.6l-10.06.76L128.2,6.24Z"/><path class="cls-1" d="M187,14.24l-1.54,10.08a58.77,58.77,0,0,1-1.68,8.18,16.75,16.75,0,0,1-2.62,5,12.49,12.49,0,0,1-4.2,3.64,14.05,14.05,0,0,1-5.35,1.52,13.49,13.49,0,0,1-5.4-.43,5.35,5.35,0,0,1-3.11-2.45A9.77,9.77,0,0,1,162,35.48a42.21,42.21,0,0,1,.66-7.82l1.61-10.55a36.58,36.58,0,0,1,2.34-9,13.9,13.9,0,0,1,4.3-5.49A12.72,12.72,0,0,1,177.71.06a10.56,10.56,0,0,1,5.51.76,6.68,6.68,0,0,1,3.17,3,10.19,10.19,0,0,1,1.14,4A32.3,32.3,0,0,1,187,14.24ZM177.62,12A17.12,17.12,0,0,0,178,8a.83.83,0,0,0-1-.72,1.53,1.53,0,0,0-1.3.92,17.62,17.62,0,0,0-.9,4l-2.83,18.58a14.92,14.92,0,0,0-.29,3.77.85.85,0,0,0,1,.78,1.5,1.5,0,0,0,1.28-.91,14.76,14.76,0,0,0,.81-3.5Z"/></g></g></svg>